<?xml version="1.0" encoding="utf-8"?>
<!-- Generator: Adobe Illustrator 23.0.2, SVG Export Plug-In . SVG Version: 6.00 Build 0)  -->
<svg version="1.1" id="Layer_1" xmlns="http://www.w3.org/2000/svg" xmlns:xlink="http://www.w3.org/1999/xlink" x="0px" y="0px"
	 viewBox="0 0 1140 371" style="enable-background:new 0 0 1140 371;" xml:space="preserve">
<style type="text/css">
	.st0{fill:#FFFFFF;}
</style>
<g>
	<path class="st0" d="M750.5,2.2c2.1-1.2,5.1-0.7,6.6,1.3c1.5,1.9,1.4,4.5,2.2,6.7C765.3,12,770,5.8,776,6.8
		c8.2,1.5,16.6,1,24.9,1.1c13.7-0.1,27.4,0.3,41-0.4c4.7,0.1,9.3,0.4,14,0.4c7,0.1,14-1,21.1-0.2c1.9,0.2,3.8,1.7,4,3.7
		c-0.3,4.8-5.9,6.6-7.2,11c-2.2,6.5-7.3,11.4-12.5,15.5c-2.4,2-5.6,2.3-8.6,2.6c-9.4,2-18.5,4.7-27.9,6.8
		c-7.5,0.7-14.3,4.9-21.9,4.7c-8.3,0.1-16.7-0.1-25,0.1c-4.9-0.2-8.1,4.2-10.5,7.8c-1.4,1.9-0.2,4.7,2.3,4.4
		c29.1-0.1,58.1-0.1,87.2,0c3.2,0.2,7.2-0.3,9.5,2.4c1.8,2.4-0.8,5.1-2.5,6.8c-4,3.3-4.7,9-8.3,12.6c-3.3,3.4-6.5,6.9-10.1,10
		c-3.8,3.1-8.8,2.9-13.4,3.7c-7.6,2.5-15.6,3.8-23.3,5.9c-4.8,0.5-9.1,2.9-14,3c-4.5-0.1-8.4,3-13,2.6c-3.5,0-6.6-1.9-10-2.4
		c-3.4-0.3-6.5,1.7-9.8,2.2c-5.7,0.8-11.5,0.1-17.2,0.5c-2.4,0.3-3.1,3.1-4.1,4.9c-3.4,9.1-8.1,17.5-12.4,26.2
		c-3.9,8.9-9.4,16.9-13.6,25.6c-6.1,12.2-12.7,24.1-20.2,35.6c-2.3,4.9-5.8,9-8.5,13.6c-7.8,12.6-17.4,24.1-23.2,37.8
		c-1.8,4.6-5.4,8.1-7.3,12.6c-3.1,6.9-7.4,13.1-10.3,20c-1.7,3.5-4.3,6.5-5.8,10.1c-3,6.7-7,12.7-10.8,19c-2.4,4.1-4.2,9.3-8.9,11.4
		c-3,1.2-6.3,3.5-9.6,2.2c-1.9-1.5-1.2-4.2-0.8-6.3c1.4-4.2-2.6-7.4-3.1-11.4c-0.5-4.7-3.7-9.8-0.9-14.3c3.1-4.7,5.6-9.7,8-14.7
		c7.8-14.4,14.6-29.3,22.3-43.8c3-7.5,7.4-14.2,10.7-21.5c6.1-12.5,12.5-24.9,18.4-37.5c3-6.6,5.6-13.5,9-19.9
		c1.3-2.5,2.7-5,3.4-7.7c1.5-6.6,6.2-11.8,7.7-18.4c3.2-8.5,7.1-16.8,9.5-25.6c1.2-4.9,4.3-9,6.3-13.5c1.2-3,3.2-5.5,5-8.2
		c2.6-3.8,3.9-8.3,6.5-12.2c2.1-3.2,4.8-6.3,5.3-10.2c1-6.8,4.9-12.6,7.6-18.8c2.3-5.3,5.5-10.2,7.8-15.5c3.5-7.9,8.4-15,12.6-22.5
		C746.8,6.3,748.1,3.7,750.5,2.2z"/>
	<path class="st0" d="M457.4,24.9c1.9-1.5,4.6-0.4,5.9,1.4c3.2,4.5,5.5,9.6,9.2,13.7c1.8,2,3.3,4.2,4.5,6.6
		c2.9,5.5,1.8,11.9,2.1,17.9c-0.3,6.7,0.7,13.5-0.9,20.1c-1.7,4.3-1.9,9-3.8,13.2c-1.7,3.9-2.5,8.3-5.3,11.7
		c-3.8,4.2-6.2,10.5-12.4,11.5c-5.6,1.6-9.2-3.9-13.1-6.8c-5-3.4-10.3-8.8-16.9-7c-11.4,1.6-22.2,5.8-33.4,8c-3.8,0-7.4,1-11.1,1.9
		c-4.2,1-7.9-1.8-12-1.9c-3.8-0.2-7.2,1.6-10.9,2.1c-1.5,0.4-3.8,0.3-4.1,2.3c-1.7,8-6.8,14.6-9.9,22c-5.8,10.5-10.8,21.5-15.3,32.7
		c-2.1,5.6-5.6,10.6-7.9,16.1c-3.4,7.4-8,14.3-10.9,21.9c-6.4,9.1-11,19.3-16.2,29c-3.9,5.2-6,11.7-10.9,16.2
		c-2.1,1.9-4.7,0.3-5.8-1.9c-2.2-4.5-5.2-8.7-5.1-13.9c-1.7-4.1-6.8-7.2-5.4-12.2c2.8-7.2,3.7-14.8,5.9-22.1
		c0.7-3.5,0.8-7.1,2.2-10.4c1.6-4.1,0.3-8.7,2.2-12.7c3-6.5,5.9-13.1,10.7-18.5c2.5-2.8,1.6-6.8,2.9-10.1
		c3.2-7.3,6.6-14.4,10.3-21.4c1.3-2.1,3.2-3.6,4.4-5.7c1-2,1.1-4.2,1.8-6.3c1.9-6.2,5.5-11.7,8.3-17.6c1.7-3.7,3.3-7.3,5.2-10.8
		c3-5.6,4.7-11.8,7.7-17.3c2.4-4.4,4.5-9,6.5-13.6c1.1-2.5,4.4-3.9,6.5-1.7c3.5,3.6,5.1,8.7,8.7,12.2c1.3,1.3,3.1,0.7,4.6,0.3
		c4.7-1.4,9.7-1,14.5-1.1c4.4,0.1,8.7-0.1,13.1,0.2c4.1,0.2,7.7,2.5,11.8,2.4c6.8,0.1,13.9,0.9,20.4-1.6c5.8-1.9,11.9-0.3,17.7-1.1
		c2-1.5,2.8-4.2,4-6.3c5.3-11.3,9.8-23,15.9-34C454.4,29.9,455,26.7,457.4,24.9z"/>
	<path class="st0" d="M219.4,26.8c3.1-2.4,6.4,0.8,8.2,3.2c2.8,3.6,1.5,8.4,2.2,12.5c1.4,2.9,4.9,1.4,7.3,0.9c2.3-0.8,5.2,0.6,5.8,3
		c0.8,2.3-0.3,4.7-0.8,7c-1,2.7,0.4,5.4,0.8,8c0.8,3.4-0.9,6.6-2.3,9.6c-1.8,3.5-2.5,7.4-4.3,10.9c-2.2,5-5.5,9.5-7.1,14.8
		c-2.6,8.6-7.7,16.2-11.7,24.1c-1,3.1-3,6.3-2.2,9.7c1.3,1.1,2.9-0.1,4.3-0.3c3.7-1.2,7.8-0.4,11.2-2.2c4.8-1.7,7.6-6.7,12.6-7.9
		c10.4-2.1,21.1-2.6,31.5-4.8c3-0.8,6.3,1.7,5.8,4.9c-1.6,8.1-6,15.2-9.4,22.6c-10,20-20.2,39.9-30,60c-1.8,7.1-5.8,13.2-9,19.7
		c-2.3,5.8-6.5,10.6-9,16.3c-3.2,4.1-5.6,8.8-9.2,12.6c-2.4,2.7-3.8,7.1-7.9,7.6c-2.5-0.4-2.5-3.6-2.9-5.6
		c-0.2-3.5-2.4-6.6-2.1-10.2c0.1-2.7,1.6-5.2,1.8-7.9c-0.5-3.2-2.3-6.2-2.2-9.6c0.1-4.2-0.9-8.4-0.4-12.5c1.4-4.4,4.6-8.1,6.3-12.4
		c3.7-8.7,8.3-17.3,10-26.7c-1.6-2-4.3-0.4-6.3-0.2c-8.1,2.8-16.2,6.4-24.9,7c-1.9,0.1-2.7,2-3.4,3.5c-4.9,10-10.1,19.8-14.9,29.8
		c-3.6,5.2-6.6,10.8-9.4,16.6c-3.6,5.2-7.2,10.5-10.3,16c-1.4,2.6-2.2,5.5-4.2,7.7c-1.5,1.7-3.8,1.8-5.9,2.1
		c0.1-4.5,2.4-8.8,1.9-13.3c-0.9-2.9-3.3-7.1-6.9-5.7c-6.4,2.5-12.2,6.9-19.3,7.1c-4.8-0.2-9,2.6-13.8,2.4c-7.4-0.2-15,0.6-22.3-0.7
		c-5.3-1.8-11.1-1.5-16.3-3.8c-6.2-2.7-13-4.3-18.4-8.5c-7.6-4.5-13.4-11.2-19.5-17.5c-3.6-4.5-6.1-9.8-9.8-14.2
		c-2.2-2.2-5.2-3.7-6.3-6.7c-2-4.9-3.1-10.2-4.6-15.3c-1.1-9.7-1.3-19.4-0.9-29.2c0.3-6.6-0.4-13.4,1.5-19.8
		c0.8-4.9,0.9-9.9,2.1-14.8c1.1-3.8,5.3-5.1,7.5-8.2c3.8-5.3,7.3-10.9,10.7-16.5c7.5-9.6,18.1-16.2,29.1-21.1
		c5-2.2,9.5-5.3,14.8-6.8c7.4-2.1,14.5-5.8,22.4-5.9c6.7-2.3,14-3.3,21-1.6c2.3,0.7,4.6,1.6,7,1.8c6.6,0.5,12.2,4.1,18.1,6.8
		c8.2,3.9,13.2,11.9,17.6,19.5c2.6,5.1,5.7,11.7,1.4,16.9c-4.5-3.3-5.4-9.3-9.6-12.9c-2.6-2.4-5.8-4.8-9.5-3.9
		c-3.6,0.6-6.4-2-9.8-2.6c-0.6,4.1,2,8.8-0.8,12.4c-4.5,3.5-10.7,0.9-15.9,2.5c-7,2.1-14,4.2-20.8,6.9c-4.2,1.7-8.9,2.5-12.7,5.3
		c-8.1,7.1-15,15.5-20,25c-2.3,4.7-5.2,9.2-7,14.1c-2.4,8.5-5.3,18-0.9,26.4c4.1,11.5,13.6,20.1,24,25.9c5.6,2.1,10.5,6.8,16.8,6.7
		c6.4,0,12.7,0,19.1,0c6.5,0.2,12.2-3.3,17.5-6.7c5.2-2.8,9.6-7.3,11.2-13.2c3-4.4,5.1-9.2,6.4-14.3c1.1-4.8,3.9-8.8,6-13.1
		c1.5-2.9,0.5-6.6,2.5-9.4c1.4-2,3-3.9,4.1-6.1c1.9-3.4,2.1-7.5,4.1-10.8c1.8-3.1,3.9-6.1,5.9-9c1.8-2.8,4.9-4.5,6.4-7.5
		c0.9-3,0.7-6.2,2.2-9c3-5.9,6.3-11.5,9.7-17.2c9.4-18.4,17.9-37.4,29.5-54.6C214.7,33.5,216.4,29.6,219.4,26.8z"/>
	<path class="st0" d="M905.2,30.6c2-1.4,4.7-0.2,5.9,1.6c3.7,5.2,6.5,11.1,10.8,16c1.7,5.6,0,11.5,1,17.2c0.7,7-1.1,13.8-2,20.6
		c-0.5,4.9-2.1,9.6-2.9,14.5c-1,7.2-3.2,14.4-6.9,20.7c-1.7,3.4-5.4,5.4-9.1,5.4c-2.9-0.1-5.1-2.1-7.1-4c-4.1-4-9-7-13.8-10.1
		c-5.8-3.5-8.7-11.1-7.3-17.7c1.9-4.9,4.5-9.5,6.6-14.3c7.5-13.7,12.6-28.6,20.3-42.3C902.1,35.8,902.6,32.4,905.2,30.6z"/>
	<path class="st0" d="M612,36.5c1.9-1.8,4.6-1.4,7-1.7c-0.4,3.5-0.2,7.2-1.9,10.5c-1.4,3-4.2,4.8-5.8,7.6c-0.9,2.5-0.6,5.4-2,7.7
		c-1.9,3-4.3,5.7-5.9,8.9c-0.8,2.1,1.7,3.5,3.5,3.6c4-0.8,7.7-4.4,12-2.8c2.3,1.3,1.6,4.7,0.4,6.5c-2.7,3.6-5.9,6.8-9.7,9.2
		c-3.1,1.8-6.7,3.9-7.5,7.8c-1,4.4-4.7,7.2-7.3,10.5c-3,3.6-7,6.4-9.6,10.3c-4.6,7.6-12.4,12.4-17.7,19.4c-1.2,1.4-1.6,3.9,0.3,4.8
		c4.6,1.2,8.7-1.9,13.1-1.9c2.6-0.1,5.3-0.1,7.8-0.9c7.5-2.3,15.5-0.7,23.2-1.2c7.8-0.6,16,2.8,20.6,9.2c3,4.9,4.8,10.7,4.6,16.5
		c-0.8,5-3.8,9.3-6.7,13.4c-7.8,9.5-17.1,17.6-26,26.1c-4.7,3.2-9,7.1-13.7,10.2c-8.8,7.5-19,13-28.3,19.7
		c-4.4,2.4-7.4,6.6-11.6,9.2c-6,3.6-10.5,9-15.4,13.8c-2.7,2.7-6.4,4.1-9,6.9c-5.2,5.2-10.9,9.9-15.5,15.6
		c-2.9,3.6-7.5,5.1-10.7,8.3c-9.1,8.9-18,18-27,27c-2.5,2.5-4.9,5.1-8,6.8c-4.5,2.4-7.5,6.7-11.2,10.1c-8.3,7.7-16.2,15.8-24.1,23.8
		c-2.8,2.9-6.5,4.7-9.5,7.3c-4.1,3.7-8.6,6.8-13.2,9.9c-2.5,1.7-5.9,3.1-8.8,1.4c1-2.3,1.8-4.7,3.7-6.4c4.6-4.4,8.9-9.1,13.7-13.3
		c4.4-3.9,8.2-8.8,9.8-14.5c1.6-3.9,2.1-8.4,4.9-11.8c3.3-4,7.5-7.2,10.9-11.1c3.8-4.4,5.9-9.8,7.8-15.2c1.3-3.8,4.7-6.2,6.5-9.7
		c2.2-3.5,2.7-8,5.6-11.1c3.5-3.9,7.2-7.8,11.7-10.5c6.7-5.2,12.3-11.7,18.6-17.3c10.6-10.7,21.3-21.4,32-32
		c5.4-5.2,10.3-11.1,16.6-15.2c6.1-5.5,13.6-9.2,20.1-14.1c1.7-0.8,2.4-4.2-0.2-4c-4.7-0.1-9.5-0.6-14,1.3
		c-3.8,1.4-7.9,1.1-11.7,2.4c-4,1.4-8.4,0.4-12.5,1.9c-4.3,1.6-9.1,1-13.4,2.8c-5.2,2.1-11.1,0.6-16.4,2.7
		c-6.9,2.8-13.6-1.9-19.2-5.3c-6.1-6-9.3-14.5-10.4-22.9c-0.7-2.8-1.7-5.9-0.1-8.6c2.1-3.9,4.4-8,8.3-10.4c5.6-3.3,10.2-8,15.8-11.4
		c4.5-2.6,8.6-5.9,13.4-8c3.5-1.5,5.7-4.8,8.9-6.8c7.3-4.1,11.6-11.7,18.6-16.2c6.9-3.9,11.7-10.5,17.6-15.7
		c5.3-3.2,9.9-7.4,14-11.9c3-3.4,7.6-4.9,10.6-8.4c3.4-3.8,8.4-5.5,11.9-9.2c2.1-2.2,4.5-4.2,7.2-5.7c3.8-2.2,6.1-6,9.9-8.2
		C603.2,43.1,607.8,40,612,36.5z"/>
	<g>
		<path class="st0" d="M1091.8,66.3c4.1-4.5,8.2-9.8,14.3-11.4c5.8-1.2,10.9,2.7,14.8,6.5c3.2,3.4,7.5,5.9,9.8,10.2
			c2.7,5.3,7.7,9.5,8.6,15.7c0.8,3.9-2.2,7.1-4.9,9.4c-14.7,11.6-29.1,23.7-44.4,34.5c-8.3,6.7-16.9,13-25,20
			c-4.2,3.2-8.4,7.4-13.9,7.9c-8.3,1.1-16.7,4.5-22.3,10.9c-2.5,3.4-4.9,6.8-6.8,10.6c-1.6,3.1,0.4,6.4,1.1,9.4
			c2.7,8.1,4.2,16.6,7.6,24.5c2.5,8.3,3.9,16.9,7.6,24.8c2.2,5.6,4.4,12,1.8,17.8c-5,11.3-21,16-31,8.2c-6.8-5.8-8.2-15.2-10.9-23.3
			c-1.8-7.3-5.1-14-6.8-21.3c-1-3.8-1.6-7.8-3.5-11.3c-2.4-4.4-2.2-9.7-4.8-14c-3.1,1-5.4,3.3-7.8,5.3c-3.7,3.3-7.6,6.4-11.3,9.7
			c-4.5,3.8-9.5,7.2-13.2,11.9c-3.9,4.9-5.3,11.7-10.6,15.4c-9.4,6.3-19.2,12.1-28.9,18c-3.3,2-8.1,2.4-10.9-0.7
			c-2.6-2.8-2.1-7.2,0.2-10c4.6-5.7,9.7-11,14.7-16.4c3.3-3.7,6.3-7.7,10.4-10.5c5.5-3.2,12.2-3.5,17.9-6.1
			c5.3-2.8,9.5-7.2,14.2-10.8c5.4-5,11.5-9.2,16.4-14.8c2.1-4.3,3-9.3,1.7-14c-1.5-5.8-2.4-11.8-4.9-17.3c-3-6.3-3.7-13.3-6.3-19.7
			c-2.7-3.5-7.8-3-11.3-5.4c-5.2-3.4-10.7-6.8-14.4-11.9c-6.5-9.4-8.2-21.4-6.6-32.6c1-4.6,2.9-9.1,6-12.7c2.3-2.7,7.3-2.6,8.7,1
			c2,5.8,5.2,11.1,6.4,17.1c0.8,3.1,1.6,7.6,5.6,8c7.2,0.7,13.3-4.1,20.1-5.5c2.8-0.8,6.2-1.5,8-4.1c1.5-3.1-1.5-6.1-1.9-9.1
			c-1-6.1-3.9-11.8-4.1-18c0-3.4,3.9-5.1,6.8-3.9c5.5,2.1,11.1,5,14.7,9.9c2.2,2.8,5.1,5.3,6.4,8.7c4.9,11.1,5.1,24.4,0,35.4
			c-1.7,4.1-5.5,6.9-6.9,11.1c0,4.3,1.8,8.4,3.4,12.3c1.7,3.6,2.2,7.7,4.2,11.1c1.3-0.4,2.8-0.7,3.8-1.9c4.3-4.3,7.3-9.7,9.8-15.2
			c1.6-3.4,2-7.5,4.8-10.3c10.1-9.6,21-18.4,31.6-27.5c3.1-2.6,6.6-4.6,9.5-7.4C1076.3,78,1084.8,73.1,1091.8,66.3z M1017.3,242
			c-5.5,2.2-7.3,10-3,14.2c4.7,5.5,15,3.3,16.6-3.9C1033,244.8,1023.9,238.4,1017.3,242z"/>
	</g>
	<path class="st0" d="M418.2,119.7c2.7-1.3,5.9-0.4,8.1,1.5c2.9,2.6,6.1,4.6,9,7.2c2.2,2.2,5.7,1.1,8.1,2.8
		c3.6,2.5,4.4,7.1,5.9,10.8c1.1,2.5,1.4,5.5,0.1,8c-8.3,17.2-16.9,34.2-26,51c-1.9,3.1-4.2,6-5.6,9.5c-4.6,10.4-11.6,19.5-16.1,29.9
		c-1.9,4.9-3.4,10.1-6.6,14.3c-1.1,1.6-3.2,2.6-5.1,2c-2.6-1.4-2.5-4.7-3.2-7.3c-2-7.4-5.3-14.3-8.9-21.1c-1.7-3.3-3.3-7.1-2.1-10.8
		c1.9-6,4.1-11.9,5.2-18.1c2.4-7,3-14.5,5.5-21.5c1-3.8,0.7-7.8,2.3-11.4c1.2-3.8,1.7-7.8,4.1-11c3.8-5.4,5.9-11.8,9.9-17
		C407.5,131.9,411.4,124.3,418.2,119.7z"/>
	<path class="st0" d="M866.4,125c2.8-1.1,5.8,0.1,7.9,2.1c2.5,2.3,5.4,4,7.9,6.2c3,3.5,9,1.2,11.3,5.8c2,4.8,5.1,10,3.9,15.4
		c-2.9,7.4-7.2,14.1-10.2,21.4c-5.7,10.4-10.8,21-16.4,31.4c-4.8,6.6-7.4,14.4-11.8,21.3c-3,4.5-5.3,9.4-7.8,14.1
		c-3.1,5.8-4.2,12.5-8.3,17.8c-1.2,1.6-3.5,2.4-5.3,1.5c-2.2-1.4-2.2-4.2-2.7-6.5c-2.2-8.9-7-16.8-10.7-25.1
		c-2.5-6.1,1.6-12.1,3-17.9c2.5-10.4,4.8-20.8,7.7-31.1c0.3-5.6,2.3-10.9,3.7-16.3c1.9-3.9,4.9-7.3,6.4-11.4
		c1.8-5.1,5.6-9.1,8.2-13.8C857.1,134.5,860.7,128.4,866.4,125z"/>
</g>
</svg>
