<?xml version="1.0" encoding="utf-8"?>
<!-- Generator: Adobe Illustrator 23.0.2, SVG Export Plug-In . SVG Version: 6.00 Build 0)  -->
<svg version="1.1" id="Layer_1" xmlns="http://www.w3.org/2000/svg" xmlns:xlink="http://www.w3.org/1999/xlink" x="0px" y="0px"
	 viewBox="0 0 1256 573.5" style="enable-background:new 0 0 1256 573.5;" xml:space="preserve">
<style type="text/css">
	.st0{fill:#FFFFFF;}
</style>
<g>
	<rect x="39.5" width="502" height="128"/>
	<rect x="909" y="445.5" width="334" height="128"/>
	<rect y="162.5" width="1256" height="247"/>
</g>
<g>
	<g>
		<g>
			<path class="st0" d="M820.5,122.4c2.1-1.2,5.1-0.7,6.6,1.3c1.5,1.9,1.4,4.5,2.2,6.7c6,1.8,10.7-4.4,16.7-3.4
				c8.2,1.5,16.6,1,24.9,1.1c13.7-0.1,27.4,0.3,41-0.4c4.7,0.1,9.3,0.4,14,0.4c7,0.1,14-1,21.1-0.2c1.9,0.2,3.8,1.7,4,3.7
				c-0.3,4.8-5.9,6.6-7.2,11c-2.2,6.5-7.3,11.4-12.5,15.5c-2.4,2-5.6,2.3-8.6,2.6c-9.4,2-18.5,4.7-27.9,6.8
				c-7.5,0.7-14.3,4.9-21.9,4.7c-8.3,0.1-16.7-0.1-25,0.1c-4.9-0.2-8.1,4.2-10.5,7.8c-1.4,1.9-0.2,4.7,2.3,4.4
				c29.1-0.1,58.1-0.1,87.2,0c3.2,0.2,7.2-0.3,9.5,2.4c1.8,2.4-0.8,5.1-2.5,6.8c-4,3.3-4.7,9-8.3,12.6c-3.3,3.4-6.5,6.9-10.1,10
				c-3.8,3.1-8.8,2.9-13.4,3.7c-7.6,2.5-15.6,3.8-23.3,5.9c-4.8,0.5-9.1,2.9-14,3c-4.5-0.1-8.4,3-13,2.6c-3.5,0-6.6-1.9-10-2.4
				c-3.4-0.3-6.5,1.7-9.8,2.2c-5.7,0.8-11.5,0.1-17.2,0.5c-2.4,0.3-3.1,3.1-4.1,4.9c-3.4,9.1-8.1,17.5-12.4,26.2
				c-3.9,8.9-9.4,16.9-13.6,25.6c-6.1,12.2-12.7,24.1-20.2,35.6c-2.3,4.9-5.8,9-8.5,13.6c-7.8,12.6-17.4,24.1-23.2,37.8
				c-1.8,4.6-5.4,8.1-7.3,12.6c-3.1,6.9-7.4,13.1-10.3,20c-1.7,3.5-4.3,6.5-5.8,10.1c-3,6.7-7,12.7-10.8,19
				c-2.4,4.1-4.2,9.3-8.9,11.4c-3,1.2-6.3,3.5-9.6,2.2c-1.9-1.5-1.2-4.2-0.8-6.3c1.4-4.2-2.6-7.4-3.1-11.4
				c-0.5-4.7-3.7-9.8-0.9-14.3c3.1-4.7,5.6-9.7,8-14.7c7.8-14.4,14.6-29.3,22.3-43.8c3-7.5,7.4-14.2,10.7-21.5
				c6.1-12.5,12.5-24.9,18.4-37.5c3-6.6,5.6-13.5,9-19.9c1.3-2.5,2.7-5,3.4-7.7c1.5-6.6,6.2-11.8,7.7-18.4
				c3.2-8.5,7.1-16.8,9.5-25.6c1.2-4.9,4.3-9,6.3-13.5c1.2-3,3.2-5.5,5-8.2c2.6-3.8,3.9-8.3,6.5-12.2c2.1-3.2,4.8-6.3,5.3-10.2
				c1-6.8,4.9-12.6,7.6-18.8c2.3-5.3,5.5-10.2,7.8-15.5c3.5-7.9,8.4-15,12.6-22.5C816.8,126.5,818.1,123.9,820.5,122.4z"/>
		</g>
		<g>
			<path class="st0" d="M527.4,145.1c1.9-1.5,4.6-0.4,5.9,1.4c3.2,4.5,5.5,9.6,9.2,13.7c1.8,2,3.3,4.2,4.5,6.6
				c2.9,5.5,1.8,11.9,2.1,17.9c-0.3,6.7,0.7,13.5-0.9,20.1c-1.7,4.3-1.9,9-3.8,13.2c-1.7,3.9-2.5,8.3-5.3,11.7
				c-3.8,4.2-6.2,10.5-12.4,11.5c-5.6,1.6-9.2-3.9-13.1-6.8c-5-3.4-10.3-8.8-16.9-7c-11.4,1.6-22.2,5.8-33.4,8
				c-3.8,0-7.4,1-11.1,1.9c-4.2,1-7.9-1.8-12-1.9c-3.8-0.2-7.2,1.6-10.9,2.1c-1.5,0.4-3.8,0.3-4.1,2.3c-1.7,8-6.8,14.6-9.9,22
				c-5.8,10.5-10.8,21.5-15.3,32.7c-2.1,5.6-5.6,10.6-7.9,16.1c-3.4,7.4-8,14.3-10.9,21.9c-6.4,9.1-11,19.3-16.2,29
				c-3.9,5.2-6,11.7-10.9,16.2c-2.1,1.9-4.7,0.3-5.8-1.9c-2.2-4.5-5.2-8.7-5.1-13.9c-1.7-4.1-6.8-7.2-5.4-12.2
				c2.8-7.2,3.7-14.8,5.9-22.1c0.7-3.5,0.8-7.1,2.2-10.4c1.6-4.1,0.3-8.7,2.2-12.7c3-6.5,5.9-13.1,10.7-18.5
				c2.5-2.8,1.6-6.8,2.9-10.1c3.2-7.3,6.6-14.4,10.3-21.4c1.3-2.1,3.2-3.6,4.4-5.7c1-2,1.1-4.2,1.8-6.3c1.9-6.2,5.5-11.7,8.3-17.6
				c1.7-3.7,3.3-7.3,5.2-10.8c3-5.6,4.7-11.8,7.7-17.3c2.4-4.4,4.5-9,6.5-13.6c1.1-2.5,4.4-3.9,6.5-1.7c3.5,3.6,5.1,8.7,8.7,12.2
				c1.3,1.3,3.1,0.7,4.6,0.3c4.7-1.4,9.7-1,14.5-1.1c4.4,0.1,8.7-0.1,13.1,0.2c4.1,0.2,7.7,2.5,11.8,2.4c6.8,0.1,13.9,0.9,20.4-1.6
				c5.8-1.9,11.9-0.3,17.7-1.1c2-1.5,2.8-4.2,4-6.3c5.3-11.3,9.8-23,15.9-34C524.4,150.1,525,146.9,527.4,145.1z"/>
		</g>
		<g>
			<path class="st0" d="M289.4,147c3.1-2.4,6.4,0.8,8.2,3.2c2.8,3.6,1.5,8.4,2.2,12.5c1.4,2.9,4.9,1.4,7.3,0.9
				c2.3-0.8,5.2,0.6,5.8,3c0.8,2.3-0.3,4.7-0.8,7c-1,2.7,0.4,5.4,0.8,8c0.8,3.4-0.9,6.6-2.3,9.6c-1.8,3.5-2.5,7.4-4.3,10.9
				c-2.2,5-5.5,9.5-7.1,14.8c-2.6,8.6-7.7,16.2-11.7,24.1c-1,3.1-3,6.3-2.2,9.7c1.3,1.1,2.9-0.1,4.3-0.3c3.7-1.2,7.8-0.4,11.2-2.2
				c4.8-1.7,7.6-6.7,12.6-7.9c10.4-2.1,21.1-2.6,31.5-4.8c3-0.8,6.3,1.7,5.8,4.9c-1.6,8.1-6,15.2-9.4,22.6c-10,20-20.2,39.9-30,60
				c-1.8,7.1-5.8,13.2-9,19.7c-2.3,5.8-6.5,10.6-9,16.3c-3.2,4.1-5.6,8.8-9.2,12.6c-2.4,2.7-3.8,7.1-7.9,7.6
				c-2.5-0.4-2.5-3.6-2.9-5.6c-0.2-3.5-2.4-6.6-2.1-10.2c0.1-2.7,1.6-5.2,1.8-7.9c-0.5-3.2-2.3-6.2-2.2-9.6
				c0.1-4.2-0.9-8.4-0.4-12.5c1.4-4.4,4.6-8.1,6.3-12.4c3.7-8.7,8.3-17.3,10-26.7c-1.6-2-4.3-0.4-6.3-0.2c-8.1,2.8-16.2,6.4-24.9,7
				c-1.9,0.1-2.7,2-3.4,3.5c-4.9,10-10.1,19.8-14.9,29.8c-3.6,5.2-6.6,10.8-9.4,16.6c-3.6,5.2-7.2,10.5-10.3,16
				c-1.4,2.6-2.2,5.5-4.2,7.7c-1.5,1.7-3.8,1.8-5.9,2.1c0.1-4.5,2.4-8.8,1.9-13.3c-0.9-2.9-3.3-7.1-6.9-5.7
				c-6.4,2.5-12.2,6.9-19.3,7.1c-4.8-0.2-9,2.6-13.8,2.4c-7.4-0.2-15,0.6-22.3-0.7c-5.3-1.8-11.1-1.5-16.3-3.8
				c-6.2-2.7-13-4.3-18.4-8.5c-7.6-4.5-13.4-11.2-19.5-17.5c-3.6-4.5-6.1-9.8-9.8-14.2c-2.2-2.2-5.2-3.7-6.3-6.7
				c-2-4.9-3.1-10.2-4.6-15.3c-1.1-9.7-1.3-19.4-0.9-29.2c0.3-6.6-0.4-13.4,1.5-19.8c0.8-4.9,0.9-9.9,2.1-14.8
				c1.1-3.8,5.3-5.1,7.5-8.2c3.8-5.3,7.3-10.9,10.7-16.5c7.5-9.6,18.1-16.2,29.1-21.1c5-2.2,9.5-5.3,14.8-6.8
				c7.4-2.1,14.5-5.8,22.4-5.9c6.7-2.3,14-3.3,21-1.6c2.3,0.7,4.6,1.6,7,1.8c6.6,0.5,12.2,4.1,18.1,6.8c8.2,3.9,13.2,11.9,17.6,19.5
				c2.6,5.1,5.7,11.7,1.4,16.9c-4.5-3.3-5.4-9.3-9.6-12.9c-2.6-2.4-5.8-4.8-9.5-3.9c-3.6,0.6-6.4-2-9.8-2.6c-0.6,4.1,2,8.8-0.8,12.4
				c-4.5,3.5-10.7,0.9-15.9,2.5c-7,2.1-14,4.2-20.8,6.9c-4.2,1.7-8.9,2.5-12.7,5.3c-8.1,7.1-15,15.5-20,25c-2.3,4.7-5.2,9.2-7,14.1
				c-2.4,8.5-5.3,18-0.9,26.4c4.1,11.5,13.6,20.1,24,25.9c5.6,2.1,10.5,6.8,16.8,6.7c6.4,0,12.7,0,19.1,0c6.5,0.2,12.2-3.3,17.5-6.7
				c5.2-2.8,9.6-7.3,11.2-13.2c3-4.4,5.1-9.2,6.4-14.3c1.1-4.8,3.9-8.8,6-13.1c1.5-2.9,0.5-6.6,2.5-9.4c1.4-2,3-3.9,4.1-6.1
				c1.9-3.4,2.1-7.5,4.1-10.8c1.8-3.1,3.9-6.1,5.9-9c1.8-2.8,4.9-4.5,6.4-7.5c0.9-3,0.7-6.2,2.2-9c3-5.9,6.3-11.5,9.7-17.2
				c9.4-18.4,17.9-37.4,29.5-54.6C284.7,153.7,286.4,149.8,289.4,147z"/>
		</g>
		<g>
			<path class="st0" d="M975.2,150.8c2-1.4,4.7-0.2,5.9,1.6c3.7,5.2,6.5,11.1,10.8,16c1.7,5.6,0,11.5,1,17.2c0.7,7-1.1,13.8-2,20.6
				c-0.5,4.9-2.1,9.6-2.9,14.5c-1,7.2-3.2,14.4-6.9,20.7c-1.7,3.4-5.4,5.4-9.1,5.4c-2.9-0.1-5.1-2.1-7.1-4c-4.1-4-9-7-13.8-10.1
				c-5.8-3.5-8.7-11.1-7.3-17.7c1.9-4.9,4.5-9.5,6.6-14.3c7.5-13.7,12.6-28.6,20.3-42.3C972.1,156,972.6,152.6,975.2,150.8z"/>
		</g>
		<g>
			<path class="st0" d="M682,156.7c1.9-1.8,4.6-1.4,7-1.7c-0.4,3.5-0.2,7.2-1.9,10.5c-1.4,3-4.2,4.8-5.8,7.6c-0.9,2.5-0.6,5.4-2,7.7
				c-1.9,3-4.3,5.7-5.9,8.9c-0.8,2.1,1.7,3.5,3.5,3.6c4-0.8,7.7-4.4,12-2.8c2.3,1.3,1.6,4.7,0.4,6.5c-2.7,3.6-5.9,6.8-9.7,9.2
				c-3.1,1.8-6.7,3.9-7.5,7.8c-1,4.4-4.7,7.2-7.3,10.5c-3,3.6-7,6.4-9.6,10.3c-4.6,7.6-12.4,12.4-17.7,19.4
				c-1.2,1.4-1.6,3.9,0.3,4.8c4.6,1.2,8.7-1.9,13.1-1.9c2.6-0.1,5.3-0.1,7.8-0.9c7.5-2.3,15.5-0.7,23.2-1.2c7.8-0.6,16,2.8,20.6,9.2
				c3,4.9,4.8,10.7,4.6,16.5c-0.8,5-3.8,9.3-6.7,13.4c-7.8,9.5-17.1,17.6-26,26.1c-4.7,3.2-9,7.1-13.7,10.2
				c-8.8,7.5-19,13-28.3,19.7c-4.4,2.4-7.4,6.6-11.6,9.2c-6,3.6-10.5,9-15.4,13.8c-2.7,2.7-6.4,4.1-9,6.9
				c-5.2,5.2-10.9,9.9-15.5,15.6c-2.9,3.6-7.5,5.1-10.7,8.3c-9.1,8.9-18,18-27,27c-2.5,2.5-4.9,5.1-8,6.8
				c-4.5,2.4-7.5,6.7-11.2,10.1c-8.3,7.7-16.2,15.8-24.1,23.8c-2.8,2.9-6.5,4.7-9.5,7.3c-4.1,3.7-8.6,6.8-13.2,9.9
				c-2.5,1.7-5.9,3.1-8.8,1.4c1-2.3,1.8-4.7,3.7-6.4c4.6-4.4,8.9-9.1,13.7-13.3c4.4-3.9,8.2-8.8,9.8-14.5c1.6-3.9,2.1-8.4,4.9-11.8
				c3.3-4,7.5-7.2,10.9-11.1c3.8-4.4,5.9-9.8,7.8-15.2c1.3-3.8,4.7-6.2,6.5-9.7c2.2-3.5,2.7-8,5.6-11.1c3.5-3.9,7.2-7.8,11.7-10.5
				c6.7-5.2,12.3-11.7,18.6-17.3c10.6-10.7,21.3-21.4,32-32c5.4-5.2,10.3-11.1,16.6-15.2c6.1-5.5,13.6-9.2,20.1-14.1
				c1.7-0.8,2.4-4.2-0.2-4c-4.7-0.1-9.5-0.6-14,1.3c-3.8,1.4-7.9,1.1-11.7,2.4c-4,1.4-8.4,0.4-12.5,1.9c-4.3,1.6-9.1,1-13.4,2.8
				c-5.2,2.1-11.1,0.6-16.4,2.7c-6.9,2.8-13.6-1.9-19.2-5.3c-6.1-6-9.3-14.5-10.4-22.9c-0.7-2.8-1.7-5.9-0.1-8.6
				c2.1-3.9,4.4-8,8.3-10.4c5.6-3.3,10.2-8,15.8-11.4c4.5-2.6,8.6-5.9,13.4-8c3.5-1.5,5.7-4.8,8.9-6.8c7.3-4.1,11.6-11.7,18.6-16.2
				c6.9-3.9,11.7-10.5,17.6-15.7c5.3-3.2,9.9-7.4,14-11.9c3-3.4,7.6-4.9,10.6-8.4c3.4-3.8,8.4-5.5,11.9-9.2c2.1-2.2,4.5-4.2,7.2-5.7
				c3.8-2.2,6.1-6,9.9-8.2C673.2,163.3,677.8,160.2,682,156.7z"/>
		</g>
		<g>
			<g>
				<path class="st0" d="M1161.8,186.5c4.1-4.5,8.2-9.8,14.3-11.4c5.8-1.2,10.9,2.7,14.8,6.5c3.2,3.4,7.5,5.9,9.8,10.2
					c2.7,5.3,7.7,9.5,8.6,15.7c0.8,3.9-2.2,7.1-4.9,9.4c-14.7,11.6-29.1,23.7-44.4,34.5c-8.3,6.7-16.9,13-25,20
					c-4.2,3.2-8.4,7.4-13.9,7.9c-8.3,1.1-16.7,4.5-22.3,10.9c-2.5,3.4-4.9,6.8-6.8,10.6c-1.6,3.1,0.4,6.4,1.1,9.4
					c2.7,8.1,4.2,16.6,7.6,24.5c2.5,8.3,3.9,16.9,7.6,24.8c2.2,5.6,4.4,12,1.8,17.8c-5,11.3-21,16-31,8.2
					c-6.8-5.8-8.2-15.2-10.9-23.3c-1.8-7.3-5.1-14-6.8-21.3c-1-3.8-1.6-7.8-3.5-11.3c-2.4-4.4-2.2-9.7-4.8-14
					c-3.1,1-5.4,3.3-7.8,5.3c-3.7,3.3-7.6,6.4-11.3,9.7c-4.5,3.8-9.5,7.2-13.2,11.9c-3.9,4.9-5.3,11.7-10.6,15.4
					c-9.4,6.3-19.2,12.1-28.9,18c-3.3,2-8.1,2.4-10.9-0.7c-2.6-2.8-2.1-7.2,0.2-10c4.6-5.7,9.7-11,14.7-16.4
					c3.3-3.7,6.3-7.7,10.4-10.5c5.5-3.2,12.2-3.5,17.9-6.1c5.3-2.8,9.5-7.2,14.2-10.8c5.4-5,11.5-9.2,16.4-14.8
					c2.1-4.3,3-9.3,1.7-14c-1.5-5.8-2.4-11.8-4.9-17.3c-3-6.3-3.7-13.3-6.3-19.7c-2.7-3.5-7.8-3-11.3-5.4
					c-5.2-3.4-10.7-6.8-14.4-11.9c-6.5-9.4-8.2-21.4-6.6-32.6c1-4.6,2.9-9.1,6-12.7c2.3-2.7,7.3-2.6,8.7,1c2,5.8,5.2,11.1,6.4,17.1
					c0.8,3.1,1.6,7.6,5.6,8c7.2,0.7,13.3-4.1,20.1-5.5c2.8-0.8,6.2-1.5,8-4.1c1.5-3.1-1.5-6.1-1.9-9.1c-1-6.1-3.9-11.8-4.1-18
					c0-3.4,3.9-5.1,6.8-3.9c5.5,2.1,11.1,5,14.7,9.9c2.2,2.8,5.1,5.3,6.4,8.7c4.9,11.1,5.1,24.4,0,35.4c-1.7,4.1-5.5,6.9-6.9,11.1
					c0,4.3,1.8,8.4,3.4,12.3c1.7,3.6,2.2,7.7,4.2,11.1c1.3-0.4,2.8-0.7,3.8-1.9c4.3-4.3,7.3-9.7,9.8-15.2c1.6-3.4,2-7.5,4.8-10.3
					c10.1-9.6,21-18.4,31.6-27.5c3.1-2.6,6.6-4.6,9.5-7.4C1146.3,198.2,1154.8,193.3,1161.8,186.5z M1087.3,362.2
					c-5.5,2.2-7.3,10-3,14.2c4.7,5.5,15,3.3,16.6-3.9C1103,365,1093.9,358.6,1087.3,362.2z"/>
			</g>
		</g>
		<g>
			<path class="st0" d="M488.2,239.9c2.7-1.3,5.9-0.4,8.1,1.5c2.9,2.6,6.1,4.6,9,7.2c2.2,2.2,5.7,1.1,8.1,2.8
				c3.6,2.5,4.4,7.1,5.9,10.8c1.1,2.5,1.4,5.5,0.1,8c-8.3,17.2-16.9,34.2-26,51c-1.9,3.1-4.2,6-5.6,9.5
				c-4.6,10.4-11.6,19.5-16.1,29.9c-1.9,4.9-3.4,10.1-6.6,14.3c-1.1,1.6-3.2,2.6-5.1,2c-2.6-1.4-2.5-4.7-3.2-7.3
				c-2-7.4-5.3-14.3-8.9-21.1c-1.7-3.3-3.3-7.1-2.1-10.8c1.9-6,4.1-11.9,5.2-18.1c2.4-7,3-14.5,5.5-21.5c1-3.8,0.7-7.8,2.3-11.4
				c1.2-3.8,1.7-7.8,4.1-11c3.8-5.4,5.9-11.8,9.9-17C477.5,252.1,481.4,244.5,488.2,239.9z"/>
		</g>
		<g>
			<path class="st0" d="M936.4,245.2c2.8-1.1,5.8,0.1,7.9,2.1c2.5,2.3,5.4,4,7.9,6.2c3,3.5,9,1.2,11.3,5.8c2,4.8,5.1,10,3.9,15.4
				c-2.9,7.4-7.2,14.1-10.2,21.4c-5.7,10.4-10.8,21-16.4,31.4c-4.8,6.6-7.4,14.4-11.8,21.3c-3,4.5-5.3,9.4-7.8,14.1
				c-3.1,5.8-4.2,12.5-8.3,17.8c-1.2,1.6-3.5,2.4-5.3,1.5c-2.2-1.4-2.2-4.2-2.7-6.5c-2.2-8.9-7-16.8-10.7-25.1
				c-2.5-6.1,1.6-12.1,3-17.9c2.5-10.4,4.8-20.8,7.7-31.1c0.3-5.6,2.3-10.9,3.7-16.3c1.9-3.9,4.9-7.3,6.4-11.4
				c1.8-5.1,5.6-9.1,8.2-13.8C927.1,254.7,930.7,248.6,936.4,245.2z"/>
		</g>
	</g>
	<g>
		<path class="st0" d="M67.4,28.9H83v26.4h30.3V28.9h15.6v70.8h-15.6V69.1H83v30.6H67.4V28.9z"/>
		<path class="st0" d="M137.9,28.9H186v14.4h-32.5v13.2h30.7v14.4h-30.7v14.4h34.3v14.4h-49.9V28.9z"/>
		<path class="st0" d="M211.7,69.5l-26.6-40.6h19.4l15,26.5l15.9-26.5h18.5l-26.6,40.6v30.2h-15.6L211.7,69.5L211.7,69.5z"/>
		<path class="st0" d="M340.8,94.7c-4.6,2.4-9.4,4.1-14.4,5.2s-10.1,1.6-15.3,1.6c-5.5,0-10.6-0.9-15.3-2.6
			c-4.7-1.7-8.7-4.2-12.1-7.5c-3.4-3.2-6.1-7.1-8-11.8s-2.9-9.7-2.9-15.4s1-10.8,2.9-15.4s4.5-8.5,8-11.8c3.4-3.2,7.4-5.7,12.1-7.5
			c4.7-1.7,9.8-2.6,15.3-2.6c5.7,0,10.9,0.7,15.6,2.1c4.8,1.4,9,3.7,12.5,7l-11,12c-2.1-2.2-4.5-3.9-7.2-5s-6-1.7-10-1.7
			c-3.3,0-6.4,0.6-9.1,1.7c-2.7,1.1-5,2.7-6.9,4.8c-1.9,2-3.4,4.5-4.5,7.2c-1,2.8-1.5,5.8-1.5,9.1s0.5,6.4,1.5,9.1
			c1,2.8,2.5,5.2,4.5,7.2c1.9,2,4.2,3.6,6.9,4.8c2.7,1.1,5.7,1.7,9.1,1.7s6.3-0.4,8.8-1.1c2.5-0.8,4.4-1.5,5.9-2.4V72.1H313V57.7
			h27.7v37H340.8z"/>
		<path class="st0" d="M408.2,72.4c0,4.2-0.6,8.1-1.9,11.6s-3.1,6.6-5.6,9.2s-5.6,4.6-9.4,6.1c-3.7,1.5-8,2.2-12.9,2.2
			s-9.3-0.7-13-2.2s-6.9-3.5-9.4-6.1s-4.4-5.7-5.6-9.2c-1.3-3.5-1.9-7.4-1.9-11.6V28.9h15.6v42.9c0,2.2,0.4,4.2,1.1,6.1
			s1.7,3.5,2.9,4.8c1.3,1.4,2.8,2.4,4.6,3.2c1.8,0.8,3.7,1.1,5.8,1.1c2.1,0,4-0.4,5.7-1.1c1.7-0.8,3.2-1.8,4.5-3.2
			c1.3-1.4,2.2-3,3-4.8c0.7-1.9,1-3.9,1-6.1V28.9h15.6v43.5H408.2z"/>
		<path class="st0" d="M434,69.5l-26.6-40.6h19.4l15,26.5l15.9-26.5h18.5l-26.6,40.6v30.2H434V69.5z"/>
		<path class="st0" d="M510.4,46.2c-1.3-1.6-3-2.8-5.2-3.5c-2.2-0.8-4.2-1.2-6.1-1.2c-1.1,0-2.3,0.1-3.5,0.4
			c-1.2,0.3-2.3,0.7-3.4,1.2c-1.1,0.6-1.9,1.3-2.6,2.2s-1,2.1-1,3.4c0,2.1,0.8,3.8,2.4,4.9c1.6,1.1,3.6,2.1,6.1,2.9
			c2.4,0.8,5,1.6,7.9,2.4c2.8,0.8,5.4,1.9,7.8,3.4s4.5,3.4,6.1,5.9s2.4,5.8,2.4,9.9c0,3.9-0.7,7.4-2.2,10.3s-3.4,5.4-5.9,7.3
			s-5.4,3.4-8.7,4.3c-3.3,0.9-6.8,1.4-10.4,1.4c-4.6,0-8.9-0.7-12.8-2.1s-7.6-3.7-11-6.8l11.1-12.2c1.6,2.1,3.6,3.8,6,4.9
			c2.4,1.2,5,1.8,7.6,1.8c1.3,0,2.5-0.1,3.9-0.4c1.3-0.3,2.5-0.8,3.5-1.4s1.9-1.4,2.5-2.3s0.9-2,0.9-3.3c0-2.1-0.8-3.8-2.4-5
			s-3.7-2.3-6.2-3.2c-2.5-0.9-5.1-1.7-8-2.6s-5.5-2-8-3.5s-4.5-3.4-6.1-5.8c-1.6-2.4-2.4-5.6-2.4-9.5c0-3.8,0.8-7.1,2.2-10
			c1.5-2.9,3.5-5.3,6-7.2c2.5-1.9,5.4-3.4,8.6-4.4c3.3-1,6.6-1.5,10.1-1.5c4,0,7.9,0.6,11.6,1.7c3.7,1.1,7.1,3,10.1,5.7L510.4,46.2z
			"/>
	</g>
	<g>
		<path class="st0" d="M1193.2,539.1c0-1.3,0.2-2.5,0.7-3.6s1.1-2.1,2-2.9c0.8-0.8,1.8-1.5,2.9-2s2.3-0.7,3.6-0.7
			c1.3,0,2.5,0.2,3.6,0.7s2.1,1.1,3,2c0.8,0.8,1.5,1.8,2,2.9c0.5,1.1,0.7,2.3,0.7,3.6s-0.2,2.5-0.7,3.6s-1.1,2.1-2,2.9
			c-0.8,0.8-1.8,1.5-3,2c-1.1,0.5-2.3,0.7-3.6,0.7c-1.3,0-2.5-0.2-3.6-0.7s-2.1-1.1-2.9-2c-0.8-0.8-1.5-1.8-2-2.9
			C1193.5,541.5,1193.2,540.3,1193.2,539.1z M1209.9,524.3h-15v-47.4h15V524.3z"/>
	</g>
	<g>
		<g>
			<path class="st0" d="M938.4,473.9H954v26.4h30.3v-26.4h15.6v70.8h-15.6v-30.6H954v30.6h-15.6V473.9z"/>
		</g>
		<g>
			<path class="st0" d="M1008.9,473.9h48.1v14.4h-32.5v13.2h30.7v14.4h-30.7v14.4h34.3v14.4h-49.9V473.9z"/>
		</g>
		<g>
			<path class="st0" d="M1065.3,473.9h27.4c3.6,0,7,0.3,10.2,1.1c3.2,0.7,6.1,1.9,8.5,3.5s4.4,3.8,5.8,6.6c1.4,2.8,2.2,6.2,2.2,10.3
				c0,5-1.3,9.2-3.9,12.8c-2.6,3.5-6.4,5.7-11.4,6.7l18,29.9h-18.7l-14.8-28.3h-7.7v28.3h-15.6V473.9z M1080.9,503.2h9.2
				c1.4,0,2.9-0.1,4.5-0.2s3-0.4,4.2-0.9c1.3-0.5,2.3-1.3,3.2-2.3c0.8-1.1,1.2-2.6,1.2-4.5c0-1.8-0.4-3.2-1.1-4.3
				c-0.7-1.1-1.7-1.9-2.8-2.4c-1.1-0.6-2.4-1-3.9-1.2s-2.9-0.3-4.3-0.3h-10.2L1080.9,503.2L1080.9,503.2z"/>
		</g>
		<g>
			<path class="st0" d="M1124.7,473.9h48.1v14.4h-32.5v13.2h30.7v14.4h-30.7v14.4h34.3v14.4h-49.9V473.9z"/>
		</g>
	</g>
</g>
</svg>
